<svg width="16" height="16" viewBox="0 0 16 16" fill="none" xmlns="http://www.w3.org/2000/svg">
<path d="M15.68 8.18182C15.68 7.61454 15.6291 7.06909 15.5346 6.54546H8V9.64H12.3054C12.12 10.64 11.5564 11.4873 10.7091 12.0546V14.0618H13.2946C14.8073 12.6691 15.68 10.6182 15.68 8.18182Z" fill="#4285F4"/>
<path d="M7.99998 16C10.16 16 11.9709 15.2836 13.2946 14.0618L10.709 12.0546C9.99269 12.5346 9.07633 12.8182 7.99998 12.8182C5.91634 12.8182 4.15271 11.4109 3.52362 9.52H0.850891V11.5927C2.16725 14.2073 4.87271 16 7.99998 16Z" fill="#34A853"/>
<path d="M3.52364 9.52C3.36364 9.04 3.27273 8.52727 3.27273 8C3.27273 7.47273 3.36364 6.96 3.52364 6.48V4.40727H0.850911C0.309091 5.48727 0 6.70909 0 8C0 9.29093 0.309091 10.5127 0.850911 11.5927L3.52364 9.52Z" fill="#FBBC05"/>
<path d="M7.99998 3.18182C9.17456 3.18182 10.229 3.58546 11.0582 4.37818L13.3527 2.08364C11.9673 0.792727 10.1563 0 7.99998 0C4.87271 0 2.16725 1.79273 0.850891 4.40727L3.52362 6.48C4.15271 4.58909 5.91634 3.18182 7.99998 3.18182Z" fill="#EA4335"/>
</svg>
